<svg width="11" height="11" viewBox="0 0 11 11" fill="none" xmlns="http://www.w3.org/2000/svg">
<path fill-rule="evenodd" clip-rule="evenodd" d="M10.5601 0.317207C10.847 0.604123 10.847 1.06931 10.5601 1.35622L6.67141 5.24492L10.56 9.13354C10.8469 9.42046 10.8469 9.88564 10.56 10.1726C10.2731 10.4595 9.80793 10.4595 9.52102 10.1726L5.63239 6.28393L1.74378 10.1725C1.45686 10.4595 0.991677 10.4595 0.704761 10.1725C0.417845 9.88563 0.417845 9.42045 0.704761 9.13353L4.59338 5.24492L0.704689 1.35623C0.417773 1.06931 0.417773 0.60413 0.704689 0.317214C0.991605 0.0302981 1.45679 0.0302981 1.7437 0.317214L5.63239 4.2059L9.52109 0.317207C9.808 0.0302913 10.2732 0.0302913 10.5601 0.317207Z" fill="#151646"/>
</svg>
