<svg width="24" height="24" viewBox="0 0 24 24" fill="none" xmlns="http://www.w3.org/2000/svg">
<g opacity="0.6">
<path d="M12.0001 14.0687L17.0344 9.03436C17.3468 8.72194 17.8534 8.72194 18.1658 9.03436C18.4782 9.34678 18.4782 9.85331 18.1658 10.1657L12.5658 15.7657C12.2534 16.0782 11.7468 16.0782 11.4344 15.7657L5.83441 10.1657C5.52199 9.85331 5.52199 9.34678 5.83441 9.03436C6.14683 8.72194 6.65336 8.72194 6.96578 9.03436L12.0001 14.0687Z" fill="#151646"/>
<mask id="mask0_1791_14396" style="mask-type:alpha" maskUnits="userSpaceOnUse" x="5" y="8" width="14" height="8">
<path d="M12.0001 14.0687L17.0344 9.03436C17.3468 8.72194 17.8534 8.72194 18.1658 9.03436C18.4782 9.34678 18.4782 9.85331 18.1658 10.1657L12.5658 15.7657C12.2534 16.0782 11.7468 16.0782 11.4344 15.7657L5.83441 10.1657C5.52199 9.85331 5.52199 9.34678 5.83441 9.03436C6.14683 8.72194 6.65336 8.72194 6.96578 9.03436L12.0001 14.0687Z" fill="white"/>
</mask>
<g mask="url(#mask0_1791_14396)">
<rect width="24" height="24" fill="#151646"/>
</g>
</g>
</svg>
