<svg width="134" height="135" viewBox="0 0 134 135" fill="none" xmlns="http://www.w3.org/2000/svg">
<path d="M81.7148 74.315C75.7747 87.1036 68.4283 97.7584 61.3588 104.648C57.8236 108.093 54.3644 110.59 51.1915 111.945C48.0187 113.3 45.1511 113.505 42.7767 112.402C40.4023 111.299 38.7095 108.976 37.698 105.677C36.6864 102.379 36.3629 98.125 36.715 93.2012C37.419 83.355 40.8215 70.8683 46.7616 58.0798C52.7017 45.2913 60.0481 34.6364 67.1176 27.7469C70.6528 24.3017 74.112 21.8047 77.2849 20.45C80.4577 19.0952 83.3253 18.8897 85.6997 19.9926C88.0741 21.0955 89.7669 23.4191 90.7784 26.7175C91.79 30.0159 92.1135 34.2698 91.7614 39.1936C91.0574 49.0398 87.6549 61.5265 81.7148 74.315Z" stroke="url(#paint0_linear_44_9407)" stroke-width="0.347753"/>
<path d="M84.4296 75.5757C78.4895 88.3642 71.1432 99.019 64.0736 105.909C60.5384 109.354 57.0792 111.851 53.9064 113.205C50.7335 114.56 47.8659 114.766 45.4916 113.663C43.1172 112.56 41.4244 110.236 40.4128 106.938C39.4013 103.64 39.0778 99.3856 39.4298 94.4619C40.1338 84.6156 43.5364 72.1289 49.4765 59.3404C55.4166 46.5519 62.7629 35.897 69.8324 29.0075C73.3677 25.5623 76.8269 23.0653 79.9997 21.7106C83.1726 20.3558 86.0401 20.1504 88.4145 21.2532C90.7889 22.3561 92.4817 24.6798 93.4933 27.9782C94.5048 31.2765 94.8283 35.5304 94.4763 40.4542C93.7723 50.3004 90.3697 62.7871 84.4296 75.5757Z" stroke="url(#paint1_linear_44_9407)" stroke-width="0.347753"/>
<path d="M87.1405 76.8349C81.2005 89.6234 73.8541 100.278 66.7846 107.168C63.2493 110.613 59.7901 113.11 56.6173 114.465C53.4444 115.819 50.5769 116.025 48.2025 114.922C45.8281 113.819 44.1353 111.496 43.1237 108.197C42.1122 104.899 41.7887 100.645 42.1408 95.7211C42.8447 85.8748 46.2473 73.3882 52.1874 60.5996C58.1275 47.8111 65.4738 37.1562 72.5434 30.2667C76.0786 26.8215 79.5378 24.3246 82.7106 22.9698C85.8835 21.615 88.7511 21.4096 91.1255 22.5124C93.4998 23.6153 95.1927 25.939 96.2042 29.2374C97.2157 32.5357 97.5392 36.7897 97.1872 41.7134C96.4832 51.5597 93.0806 64.0463 87.1405 76.8349Z" stroke="url(#paint2_linear_44_9407)" stroke-width="0.347753"/>
<path d="M81.1162 56.3083C87.8646 67.2135 92.0808 78.5662 93.4474 88.0995C94.8163 97.6494 93.3189 105.301 88.7377 108.907C84.1566 112.514 77.2727 111.461 69.7971 106.718C62.3345 101.984 54.3406 93.6052 47.5921 82.7C40.8437 71.7947 36.6275 60.4421 35.2609 50.9088C33.892 41.3588 35.3894 33.7076 39.9706 30.1011C44.5517 26.4946 51.4356 27.5477 58.9112 32.2902C66.3738 37.0245 74.3677 45.4031 81.1162 56.3083Z" stroke="url(#paint3_linear_44_9407)" stroke-width="0.347753"/>
<path d="M83.7158 54.2625C90.4642 65.1677 94.6804 76.5204 96.047 86.0537C97.4159 95.6037 95.9185 103.255 91.3373 106.861C86.7562 110.468 79.8723 109.415 72.3967 104.672C64.9341 99.938 56.9402 91.5594 50.1918 80.6542C43.4433 69.749 39.2271 58.3963 37.8606 48.863C36.4916 39.313 37.9891 31.6618 42.5702 28.0553C47.1514 24.4489 54.0352 25.5019 61.5108 30.2444C68.9734 34.9787 76.9674 43.3573 83.7158 54.2625Z" stroke="url(#paint4_linear_44_9407)" stroke-width="0.347753"/>
<path d="M86.3154 52.2154C93.0638 63.1206 97.28 74.4733 98.6466 84.0066C100.016 93.5565 98.5181 101.208 93.9369 104.814C89.3558 108.421 82.4719 107.368 74.9963 102.625C67.5338 97.8909 59.5398 89.5123 52.7914 78.6071C46.0429 67.7018 41.8267 56.3492 40.4602 46.8159C39.0912 37.2659 40.5887 29.6147 45.1698 26.0082C49.751 22.4017 56.6348 23.4548 64.1104 28.1973C71.573 32.9316 79.567 41.3102 86.3154 52.2154Z" stroke="url(#paint5_linear_44_9407)" stroke-width="0.347753"/>
<path d="M66.3374 49.4432C53.6513 51.3213 42.2568 55.423 34.0907 60.5285C25.9103 65.643 21.0299 71.7228 21.2293 77.5498C21.4287 83.3768 26.674 87.9576 35.1202 90.6105C43.5517 93.2588 55.1107 93.9623 67.7968 92.0841C80.4829 90.206 91.8774 86.1043 100.043 80.9988C108.224 75.8843 113.104 69.8045 112.905 63.9774C112.705 58.1504 107.46 53.5697 99.014 50.9168C90.5825 48.2685 79.0235 47.565 66.3374 49.4432Z" stroke="url(#paint6_linear_44_9407)" stroke-width="0.347753"/>
<path d="M66.2222 46.1368C53.5361 48.0149 42.1415 52.1166 33.9754 57.2221C25.7951 62.3366 20.9146 68.4164 21.1141 74.2434C21.3135 80.0704 26.5588 84.6512 35.005 87.3041C43.4364 89.9524 54.9954 90.6559 67.6815 88.7777C80.3676 86.8996 91.7622 82.7979 99.9283 77.6924C108.109 72.5779 112.989 66.4981 112.79 60.6711C112.59 54.844 107.345 50.2633 98.8987 47.6104C90.4673 44.9621 78.9083 44.2586 66.2222 46.1368Z" stroke="url(#paint7_linear_44_9407)" stroke-width="0.347753"/>
<path d="M66.1108 42.8291C53.4247 44.7072 42.0302 48.8089 33.8641 53.9144C25.6838 59.0289 20.8033 65.1087 21.0027 70.9357C21.2022 76.7627 26.4475 81.3435 34.8937 83.9964C43.3251 86.6447 54.8841 87.3482 67.5702 85.47C80.2563 83.5919 91.6508 79.4902 99.8169 74.3847C107.997 69.2702 112.878 63.1904 112.678 57.3634C112.479 51.5364 107.234 46.9556 98.7874 44.3027C90.3559 41.6544 78.797 40.9509 66.1108 42.8291Z" stroke="url(#paint8_linear_44_9407)" stroke-width="0.347753"/>
<defs>
<linearGradient id="paint0_linear_44_9407" x1="85.7729" y1="19.8349" x2="63.6023" y2="131.903" gradientUnits="userSpaceOnUse">
<stop stop-color="white"/>
<stop offset="1" stop-color="white" stop-opacity="0"/>
</linearGradient>
<linearGradient id="paint1_linear_44_9407" x1="88.4878" y1="21.0955" x2="66.3172" y2="133.164" gradientUnits="userSpaceOnUse">
<stop stop-color="white"/>
<stop offset="1" stop-color="white" stop-opacity="0"/>
</linearGradient>
<linearGradient id="paint2_linear_44_9407" x1="91.1987" y1="22.3547" x2="69.0281" y2="134.423" gradientUnits="userSpaceOnUse">
<stop stop-color="white"/>
<stop offset="1" stop-color="white" stop-opacity="0"/>
</linearGradient>
<linearGradient id="paint3_linear_44_9407" x1="39.8791" y1="29.9533" x2="117.189" y2="96.5527" gradientUnits="userSpaceOnUse">
<stop stop-color="white"/>
<stop offset="1" stop-color="white" stop-opacity="0"/>
</linearGradient>
<linearGradient id="paint4_linear_44_9407" x1="42.4787" y1="27.9075" x2="119.789" y2="94.5069" gradientUnits="userSpaceOnUse">
<stop stop-color="white"/>
<stop offset="1" stop-color="white" stop-opacity="0"/>
</linearGradient>
<linearGradient id="paint5_linear_44_9407" x1="45.0783" y1="25.8604" x2="122.388" y2="92.4598" gradientUnits="userSpaceOnUse">
<stop stop-color="white"/>
<stop offset="1" stop-color="white" stop-opacity="0"/>
</linearGradient>
<linearGradient id="paint6_linear_44_9407" x1="113.077" y1="63.952" x2="12.3163" y2="47.8402" gradientUnits="userSpaceOnUse">
<stop stop-color="white"/>
<stop offset="1" stop-color="white" stop-opacity="0"/>
</linearGradient>
<linearGradient id="paint7_linear_44_9407" x1="112.962" y1="60.6456" x2="12.201" y2="44.5338" gradientUnits="userSpaceOnUse">
<stop stop-color="white"/>
<stop offset="1" stop-color="white" stop-opacity="0"/>
</linearGradient>
<linearGradient id="paint8_linear_44_9407" x1="112.85" y1="57.3379" x2="12.0897" y2="41.2261" gradientUnits="userSpaceOnUse">
<stop stop-color="white"/>
<stop offset="1" stop-color="white" stop-opacity="0"/>
</linearGradient>
</defs>
</svg>
