<svg width="78" height="78" viewBox="0 0 78 78" fill="none" xmlns="http://www.w3.org/2000/svg">
<path d="M9.75 37.31C9.75 24.3181 9.75 17.8221 13.7861 13.7861C17.8221 9.75 24.3181 9.75 37.31 9.75H40.69C53.6819 9.75 60.1779 9.75 64.2139 13.7861C68.25 17.8221 68.25 24.3181 68.25 37.31V40.69C68.25 53.6819 68.25 60.1779 64.2139 64.2139C60.1779 68.25 53.6819 68.25 40.69 68.25H37.31C24.3181 68.25 17.8221 68.25 13.7861 64.2139C9.75 60.1779 9.75 53.6819 9.75 40.69V37.31Z" stroke="#151646" stroke-width="3.445"/>
<path fill-rule="evenodd" clip-rule="evenodd" d="M61.3476 45.9107L60.6961 45.2592L60.6498 45.2129C59.4744 44.0374 58.5262 43.0893 57.6997 42.3751C56.8494 41.6404 56.0282 41.0631 55.0775 40.6994C53.0962 39.9415 50.9048 39.9415 48.9235 40.6994C47.9728 41.0631 47.1517 41.6404 46.3013 42.3751C45.4748 43.0893 44.5267 44.0374 43.3513 45.2128L43.3513 45.2128L43.3049 45.2592C42.4259 46.1381 41.8396 46.7225 41.3653 47.1257C40.893 47.5272 40.6891 47.6076 40.6113 47.6286C40.0994 47.7667 39.5523 47.6614 39.1282 47.3429C39.0638 47.2946 38.9044 47.1442 38.615 46.5961C38.3243 46.0456 37.997 45.2852 37.5073 44.1427L37.3337 43.7377L37.298 43.6544L37.298 43.6543C36.2149 41.1271 35.3537 39.1176 34.53 37.6044C33.6946 36.0699 32.7855 34.825 31.4984 34.0188C29.6805 32.88 27.503 32.4607 25.3921 32.8428C23.8977 33.1134 22.5913 33.9316 21.2457 35.0461C19.9675 36.1049 18.4859 37.5784 16.6408 39.4233V40.6896C16.6408 41.9743 16.6413 43.1719 16.6452 44.2908L18.8006 42.1354C20.8234 40.1127 22.2559 38.6827 23.4433 37.6992C24.6264 36.7192 25.3796 36.3461 26.0058 36.2327C27.2724 36.0034 28.5788 36.2551 29.6696 36.9383C30.2089 37.2762 30.7697 37.9023 31.5043 39.2516C32.2415 40.6057 33.0404 42.4655 34.1673 45.0948L34.3409 45.4998L34.3689 45.5652L34.369 45.5653C34.8231 46.6251 35.2048 47.5157 35.5686 48.2047C35.9411 48.9102 36.3885 49.5938 37.0596 50.0977C38.3317 51.053 39.973 51.3691 41.5089 50.9546C42.3192 50.7359 42.9884 50.2674 43.5964 49.7507C44.1901 49.246 44.8751 48.5609 45.6905 47.7456L45.7409 47.6952C46.9735 46.4626 47.8334 45.6042 48.5537 44.9818C49.2611 44.3706 49.7332 44.0781 50.1543 43.917C51.3431 43.4623 52.6579 43.4623 53.8467 43.917C54.2678 44.0781 54.7399 44.3706 55.4473 44.9818C56.1676 45.6042 57.0276 46.4626 58.2602 47.6952L61.2493 50.6844C61.3059 49.2838 61.3338 47.7074 61.3476 45.9107Z" fill="#151646"/>
<circle cx="53.625" cy="24.375" r="4.875" fill="#151646"/>
</svg>
